<svg width="153" height="71" viewBox="0 0 153 71" fill="none" xmlns="http://www.w3.org/2000/svg">
<path d="M0 54.637L1.52831 69.9838H8.91513L4.58492 57.0568L6.43163 42.6016V39.545L1.52831 42.6016L0 54.637Z" fill="#3CAEA3"/>
<path d="M53.457 61.7648L51.5227 63.7528V70.075H47.1707V42.5655H51.5227V58.4336L52.8839 56.7322L58.2389 50.6965H63.4686L56.2689 58.7739L64.2387 70.075H59.2061L53.457 61.7648Z" fill="#3CAEA3"/>
<path d="M76.4712 54.6725C75.8981 54.577 75.307 54.5293 74.6981 54.5293C72.7041 54.5293 71.3609 55.2934 70.6684 56.8217V70.075H66.3163V50.6965H70.4714L70.5788 52.8636C71.6295 51.1801 73.0862 50.3383 74.9488 50.3383C75.5697 50.3383 76.0831 50.4219 76.4891 50.5891L76.4712 54.6725Z" fill="#3CAEA3"/>
<path d="M90.2618 70.075C90.0707 69.7049 89.9036 69.1019 89.7603 68.2661C88.3753 69.7108 86.6798 70.4332 84.6739 70.4332C82.7277 70.4332 81.1397 69.878 79.9099 68.7676C78.6801 67.6572 78.0652 66.2841 78.0652 64.6483C78.0652 62.5827 78.8293 61.0007 80.3576 59.9022C81.8979 58.7918 84.0948 58.2366 86.9484 58.2366H89.617V56.965C89.617 55.962 89.3364 55.1621 88.7753 54.5651C88.2141 53.9561 87.3604 53.6517 86.2141 53.6517C85.2231 53.6517 84.4112 53.9024 83.7784 54.4039C83.1456 54.8934 82.8292 55.5203 82.8292 56.2844H78.4771C78.4771 55.2218 78.8293 54.2308 79.5338 53.3114C80.2382 52.3801 81.1934 51.6517 82.3993 51.1264C83.6172 50.601 84.9724 50.3383 86.4649 50.3383C88.7335 50.3383 90.5424 50.9115 91.8916 52.0577C93.2408 53.192 93.9333 54.7919 93.9691 56.8575V65.5975C93.9691 67.3408 94.2139 68.7318 94.7034 69.7705V70.075H90.2618ZM85.4798 66.9408C86.3395 66.9408 87.1455 66.7318 87.8977 66.3139C88.6618 65.896 89.2349 65.3349 89.617 64.6304V60.9768H87.2708C85.6589 60.9768 84.447 61.2574 83.6351 61.8186C82.8232 62.3797 82.4173 63.1737 82.4173 64.2006C82.4173 65.0364 82.6919 65.705 83.2411 66.2065C83.8023 66.696 84.5485 66.9408 85.4798 66.9408Z" fill="#3CAEA3"/>
<path d="M104.822 61.7648L102.888 63.7528V70.075H98.5361V42.5655H102.888V58.4336L104.249 56.7322L109.604 50.6965H114.834L107.634 58.7739L115.604 70.075H110.572L104.822 61.7648Z" fill="#3CAEA3"/>
<path d="M125.867 70.4332C123.108 70.4332 120.87 69.5676 119.15 67.8363C117.443 66.0931 116.589 63.7767 116.589 60.8873V60.35C116.589 58.4157 116.959 56.6904 117.7 55.174C118.452 53.6457 119.503 52.4577 120.852 51.61C122.201 50.7622 123.705 50.3383 125.365 50.3383C128.004 50.3383 130.04 51.1801 131.472 52.8636C132.917 54.5472 133.639 56.9292 133.639 60.0097V61.7648H120.977C121.109 63.3648 121.64 64.6304 122.571 65.5617C123.514 66.493 124.696 66.9587 126.117 66.9587C128.111 66.9587 129.735 66.1528 130.989 64.5409L133.335 66.7796C132.559 67.9378 131.52 68.8392 130.219 69.484C128.929 70.1168 127.478 70.4332 125.867 70.4332ZM125.347 53.8308C124.153 53.8308 123.186 54.2487 122.446 55.0845C121.717 55.9203 121.252 57.0844 121.049 58.5769H129.341V58.2545C129.246 56.7978 128.858 55.6994 128.177 54.9591C127.496 54.2069 126.553 53.8308 125.347 53.8308Z" fill="#3CAEA3"/>
<path d="M141.072 50.6965L141.197 52.9353C142.63 51.204 144.511 50.3383 146.839 50.3383C150.875 50.3383 152.928 52.6487 153 57.2695V70.075H148.648V57.5202C148.648 56.2904 148.379 55.383 147.842 54.7979C147.317 54.2009 146.451 53.9024 145.245 53.9024C143.49 53.9024 142.182 54.6964 141.323 56.2844V70.075H136.971V50.6965H141.072Z" fill="#3CAEA3"/>
<path d="M32.7569 56.3564L46.0022 70.1748H14.0351L11.87 56.3564V36.6157L15.8818 20.3138L27.2168 5.2854L51.2239 0L67.5259 18.4671L59.2475 35.4058L45.1107 36.6157L40.7805 35.4058L51.2239 32.3492L57.0824 22.1605L48.1673 14.5189L32.7569 18.4671L27.2168 38.7808L32.7569 56.3564Z" fill="#3CAEA3"/>
</svg>
